<svg id="visual" viewBox="0 0 960 540" width="960" height="540" xmlns="http://www.w3.org/2000/svg" xmlns:xlink="http://www.w3.org/1999/xlink" version="1.1"><path d="M0 393L137 285L274 297L411 343L549 320L686 390L823 369L960 398L960 541L823 541L686 541L549 541L411 541L274 541L137 541L0 541Z" fill="#0af5f5"></path><path d="M0 425L137 343L274 383L411 370L549 344L686 376L823 329L960 379L960 541L823 541L686 541L549 541L411 541L274 541L137 541L0 541Z" fill="#00d2ff"></path><path d="M0 421L137 385L274 357L411 404L549 427L686 348L823 357L960 395L960 541L823 541L686 541L549 541L411 541L274 541L137 541L0 541Z" fill="#00a9ff"></path><path d="M0 418L137 419L274 487L411 453L549 489L686 452L823 481L960 444L960 541L823 541L686 541L549 541L411 541L274 541L137 541L0 541Z" fill="#1776fa"></path><path d="M0 454L137 468L274 458L411 488L549 512L686 516L823 493L960 460L960 541L823 541L686 541L549 541L411 541L274 541L137 541L0 541Z" fill="#7822d3"></path></svg>