<svg id="visual" viewBox="0 0 960 540" width="960" height="540" xmlns="http://www.w3.org/2000/svg" xmlns:xlink="http://www.w3.org/1999/xlink" version="1.1"><path d="M0 97L137 169L274 160L411 130L549 145L686 99L823 113L960 93L960 0L823 0L686 0L549 0L411 0L274 0L137 0L0 0Z" fill="#0af5f5"></path><path d="M0 75L137 130L274 103L411 112L549 129L686 108L823 139L960 105L960 0L823 0L686 0L549 0L411 0L274 0L137 0L0 0Z" fill="#00d2ff"></path><path d="M0 78L137 102L274 121L411 89L549 74L686 126L823 120L960 95L960 0L823 0L686 0L549 0L411 0L274 0L137 0L0 0Z" fill="#00a9ff"></path><path d="M0 80L137 79L274 34L411 56L549 32L686 57L823 37L960 62L960 0L823 0L686 0L549 0L411 0L274 0L137 0L0 0Z" fill="#1776fa"></path><path d="M0 56L137 46L274 53L411 33L549 17L686 15L823 30L960 52L960 0L823 0L686 0L549 0L411 0L274 0L137 0L0 0Z" fill="#7822d3"></path></svg>